<?xml version="1.0" encoding="utf-8"?>
<!-- Generator: Adobe Illustrator 23.1.0, SVG Export Plug-In . SVG Version: 6.00 Build 0)  -->
<svg version="1.1" id="Слой_1" xmlns="http://www.w3.org/2000/svg" xmlns:xlink="http://www.w3.org/1999/xlink" x="0px" y="0px"
	 viewBox="0 0 300 300" style="enable-background:new 0 0 300 300;" xml:space="preserve">
<style type="text/css">
	.st0{fill:url(#SVGID_1_);}
	.st1{clip-path:url(#SVGID_3_);fill:url(#SVGID_4_);}
	.st2{fill:url(#SVGID_5_);}
	.st3{clip-path:url(#SVGID_7_);fill:url(#SVGID_8_);}
	.st4{fill:url(#SVGID_9_);}
	.st5{clip-path:url(#SVGID_11_);fill:url(#SVGID_12_);}
	.st6{fill:url(#SVGID_13_);}
	.st7{clip-path:url(#SVGID_15_);fill:url(#SVGID_16_);}
	.st8{fill:url(#SVGID_17_);}
	.st9{clip-path:url(#SVGID_19_);fill:url(#SVGID_20_);}
	.st10{fill:url(#SVGID_21_);}
	.st11{clip-path:url(#SVGID_23_);fill:url(#SVGID_24_);}
</style>
<g>
	<g>
		
			<linearGradient id="SVGID_1_" gradientUnits="userSpaceOnUse" x1="42.144" y1="2762.3198" x2="138.4004" y2="2762.3198" gradientTransform="matrix(1 0 0 1 0 -2543.9216)">
			<stop  offset="0" style="stop-color:#F89521"/>
			<stop  offset="0.5" style="stop-color:#F06724"/>
			<stop  offset="1" style="stop-color:#E05D26"/>
		</linearGradient>
		<path id="SVGID_25_" class="st0" d="M56.2,176.5c-7.7,3.2-14.1,13.4-14.1,21.7V266c0,2.6,0.6,5.1,1.9,7c1.3,1.3,3.2,2.6,5.1,2.6
			l0,0c1.9,0,3.2-0.6,5.1-1.3l69.7-32c7.7-3.2,14.1-13.4,14.1-21.7v-38.3c0-5.8-47.9-21.1-47.9-21.1L56.2,176.5z"/>
	</g>
	<g>
		<g>
			<defs>
				<path id="SVGID_2_" d="M56.2,176.5c-7.7,3.2-14.1,13.4-14.1,21.7V266c0,2.6,0.6,5.1,1.9,7c1.3,1.3,3.2,2.6,5.1,2.6l0,0
					c1.9,0,3.2-0.6,5.1-1.3l69.7-32c7.7-3.2,14.1-13.4,14.1-21.7v-38.3c0-5.8-47.9-21.1-47.9-21.1L56.2,176.5z"/>
			</defs>
			<clipPath id="SVGID_3_">
				<use xlink:href="#SVGID_2_"  style="overflow:visible;"/>
			</clipPath>
			
				<linearGradient id="SVGID_4_" gradientUnits="userSpaceOnUse" x1="-4601.8062" y1="518.5977" x2="-4598.9043" y2="518.5977" gradientTransform="matrix(33.1956 0 0 33.1956 152801.8594 -16996.7617)">
				<stop  offset="0" style="stop-color:#F89521"/>
				<stop  offset="0.5" style="stop-color:#F06724"/>
				<stop  offset="1" style="stop-color:#E05D26"/>
			</linearGradient>
			<rect x="42.1" y="161.2" class="st1" width="96.5" height="114.4"/>
		</g>
	</g>
</g>
<g>
	<g>
		
			<linearGradient id="SVGID_5_" gradientUnits="userSpaceOnUse" x1="11.5757" y1="2704.4846" x2="138.4298" y2="2704.4846" gradientTransform="matrix(1 0 0 1 0 -2543.9216)">
			<stop  offset="0" style="stop-color:#F89521"/>
			<stop  offset="0.5" style="stop-color:#F06724"/>
			<stop  offset="1" style="stop-color:#E05D26"/>
		</linearGradient>
		<path id="SVGID_29_" class="st2" d="M12.1,123.5c0,10.9,8.3,24.3,18.5,28.8l108,49.8v-24.9L12.1,119V123.5z"/>
	</g>
	<g>
		<g>
			<defs>
				<path id="SVGID_6_" d="M12.1,123.5c0,10.9,8.3,24.3,18.5,28.8l108,49.8v-24.9L12.1,119V123.5z"/>
			</defs>
			<clipPath id="SVGID_7_">
				<use xlink:href="#SVGID_6_"  style="overflow:visible;"/>
			</clipPath>
			
				<linearGradient id="SVGID_8_" gradientUnits="userSpaceOnUse" x1="-4635.8716" y1="498.455" x2="-4632.9712" y2="498.455" gradientTransform="matrix(43.7471 0 0 43.7471 202817.5 -21645.3984)">
				<stop  offset="0" style="stop-color:#F89521"/>
				<stop  offset="0.5" style="stop-color:#F06724"/>
				<stop  offset="1" style="stop-color:#E05D26"/>
			</linearGradient>
			<rect x="12.1" y="119" class="st3" width="127.2" height="83.1"/>
		</g>
	</g>
</g>
<g>
	<g>
		
			<linearGradient id="SVGID_9_" gradientUnits="userSpaceOnUse" x1="11.5757" y1="2632.5901" x2="138.4298" y2="2632.5901" gradientTransform="matrix(1 0 0 1 0 -2543.9216)">
			<stop  offset="0" style="stop-color:#F89521"/>
			<stop  offset="0.5" style="stop-color:#F06724"/>
			<stop  offset="1" style="stop-color:#E05D26"/>
		</linearGradient>
		<path id="SVGID_33_" class="st4" d="M41.5,69.8l-13.4-6.4c-4.5-2.6-7-7-7.7-11.5V43c0-4.5,3.2-6.4,7.7-5.1l13.4,6.4
			c4.5,2.6,7,6.4,7.7,11.5v8.9c0,3.2-1.9,5.8-4.5,5.8C43.4,70.5,42.8,70.5,41.5,69.8 M12.1,35.3v61.4l127.2,58.2V95.4
			c0-10.9-8.3-24.3-18.5-28.8L29.4,24.4c-1.9-1.3-4.5-1.3-6.4-1.9C15.9,22.5,12.1,27.6,12.1,35.3"/>
	</g>
	<g>
		<g>
			<defs>
				<path id="SVGID_10_" d="M41.5,69.8l-13.4-6.4c-4.5-2.6-7-7-7.7-11.5V43c0-4.5,3.2-6.4,7.7-5.1l13.4,6.4c4.5,2.6,7,6.4,7.7,11.5
					v8.9c0,3.2-1.9,5.8-4.5,5.8C43.4,70.5,42.8,70.5,41.5,69.8 M12.1,35.3v61.4l127.2,58.2V95.4c0-10.9-8.3-24.3-18.5-28.8
					L29.4,24.4c-1.9-1.3-4.5-1.3-6.4-1.9C15.9,22.5,12.1,27.6,12.1,35.3"/>
			</defs>
			<clipPath id="SVGID_11_">
				<use xlink:href="#SVGID_10_"  style="overflow:visible;"/>
			</clipPath>
			
				<linearGradient id="SVGID_12_" gradientUnits="userSpaceOnUse" x1="-4635.8716" y1="497.3738" x2="-4632.9712" y2="497.3738" gradientTransform="matrix(43.7471 0 0 43.7471 202817.5 -21670.3125)">
				<stop  offset="0" style="stop-color:#F89521"/>
				<stop  offset="0.5" style="stop-color:#F06724"/>
				<stop  offset="1" style="stop-color:#E05D26"/>
			</linearGradient>
			<rect x="12.1" y="22.5" class="st5" width="127.2" height="131.6"/>
		</g>
	</g>
</g>
<g>
	<g>
		
			<linearGradient id="SVGID_13_" gradientUnits="userSpaceOnUse" x1="158.7763" y1="2762.3198" x2="255.0275" y2="2762.3198" gradientTransform="matrix(1 0 0 1 0 -2543.9216)">
			<stop  offset="0" style="stop-color:#F89521"/>
			<stop  offset="0.5" style="stop-color:#F06724"/>
			<stop  offset="1" style="stop-color:#E05D26"/>
		</linearGradient>
		<path id="SVGID_37_" class="st6" d="M159.1,182.3v38.3c0,8.3,6.4,18.5,14.1,21.7l69.7,32c1.3,0.6,3.2,1.3,5.1,1.3l0,0
			c1.9,0,3.8-0.6,5.1-2.6c1.3-1.9,2.6-4.5,1.9-7v-67.7c0-8.3-6.4-18.5-14.1-21.7L207,161.2C207,161.2,159.1,176.5,159.1,182.3"/>
	</g>
	<g>
		<g>
			<defs>
				<path id="SVGID_14_" d="M159.1,182.3v38.3c0,8.3,6.4,18.5,14.1,21.7l69.7,32c1.3,0.6,3.2,1.3,5.1,1.3l0,0c1.9,0,3.8-0.6,5.1-2.6
					c1.3-1.9,2.6-4.5,1.9-7v-67.7c0-8.3-6.4-18.5-14.1-21.7L207,161.2C207,161.2,159.1,176.5,159.1,182.3"/>
			</defs>
			<clipPath id="SVGID_15_">
				<use xlink:href="#SVGID_14_"  style="overflow:visible;"/>
			</clipPath>
			
				<linearGradient id="SVGID_16_" gradientUnits="userSpaceOnUse" x1="-4884.6807" y1="518.5989" x2="-4881.7788" y2="518.5989" gradientTransform="matrix(-33.1954 0 0 33.1954 -161893.7969 -16996.7012)">
				<stop  offset="0" style="stop-color:#F89521"/>
				<stop  offset="0.5" style="stop-color:#F06724"/>
				<stop  offset="1" style="stop-color:#E05D26"/>
			</linearGradient>
			<rect x="159.1" y="161.2" class="st7" width="96.5" height="114.4"/>
		</g>
	</g>
</g>
<g>
	<g>
		
			<linearGradient id="SVGID_17_" gradientUnits="userSpaceOnUse" x1="158.7763" y1="2704.4846" x2="285.6195" y2="2704.4846" gradientTransform="matrix(1 0 0 1 0 -2543.9216)">
			<stop  offset="0" style="stop-color:#F89521"/>
			<stop  offset="0.5" style="stop-color:#F06724"/>
			<stop  offset="1" style="stop-color:#E05D26"/>
		</linearGradient>
		<path id="SVGID_41_" class="st8" d="M159.1,177.2v24.9l108-49.8c10.2-4.5,18.5-17.9,18.5-28.8V119L159.1,177.2z"/>
	</g>
	<g>
		<g>
			<defs>
				<path id="SVGID_18_" d="M159.1,177.2v24.9l108-49.8c10.2-4.5,18.5-17.9,18.5-28.8V119L159.1,177.2z"/>
			</defs>
			<clipPath id="SVGID_19_">
				<use xlink:href="#SVGID_18_"  style="overflow:visible;"/>
			</clipPath>
			
				<linearGradient id="SVGID_20_" gradientUnits="userSpaceOnUse" x1="-4850.5171" y1="498.4557" x2="-4847.6182" y2="498.4557" gradientTransform="matrix(-43.7471 0 0 43.7471 -211910.4375 -21645.4297)">
				<stop  offset="0" style="stop-color:#F89521"/>
				<stop  offset="0.5" style="stop-color:#F06724"/>
				<stop  offset="1" style="stop-color:#E05D26"/>
			</linearGradient>
			<rect x="159.1" y="119" class="st9" width="126.5" height="83.1"/>
		</g>
	</g>
</g>
<g>
	<g>
		
			<linearGradient id="SVGID_21_" gradientUnits="userSpaceOnUse" x1="158.7763" y1="2632.9097" x2="285.6195" y2="2632.9097" gradientTransform="matrix(1 0 0 1 0 -2543.9216)">
			<stop  offset="0" style="stop-color:#F89521"/>
			<stop  offset="0.5" style="stop-color:#F06724"/>
			<stop  offset="1" style="stop-color:#E05D26"/>
		</linearGradient>
		<path id="SVGID_45_" class="st10" d="M248.6,65.3v-8.9c0-5.1,3.2-9.6,7.7-11.5l13.4-6.4c3.8-1.9,7.7,0,7.7,5.1v8.9
			c0,5.1-3.2,9.6-7.7,11.5l-13.4,5.8c-1.3,0.6-1.9,0.6-2.6,0.6C250.5,70.5,248.6,68.5,248.6,65.3 M269,24.4l-91.4,42.2
			c-10.2,4.5-18.5,17.9-18.5,28.8v59.4l126.5-58.2V35.3c0-7.7-3.8-12.1-10.2-12.1C273.5,23.2,270.9,23.2,269,24.4"/>
	</g>
	<g>
		<g>
			<defs>
				<path id="SVGID_22_" d="M248.6,65.3v-8.9c0-5.1,3.2-9.6,7.7-11.5l13.4-6.4c3.8-1.9,7.7,0,7.7,5.1v8.9c0,5.1-3.2,9.6-7.7,11.5
					l-13.4,5.8c-1.3,0.6-1.9,0.6-2.6,0.6C250.5,70.5,248.6,68.5,248.6,65.3 M269,24.4l-91.4,42.2c-10.2,4.5-18.5,17.9-18.5,28.8
					v59.4l126.5-58.2V35.3c0-7.7-3.8-12.1-10.2-12.1C273.5,23.2,270.9,23.2,269,24.4"/>
			</defs>
			<clipPath id="SVGID_23_">
				<use xlink:href="#SVGID_22_"  style="overflow:visible;"/>
			</clipPath>
			
				<linearGradient id="SVGID_24_" gradientUnits="userSpaceOnUse" x1="-4850.5171" y1="497.3745" x2="-4847.6182" y2="497.3745" gradientTransform="matrix(-43.7471 0 0 43.7471 -211910.4375 -21670.3438)">
				<stop  offset="0" style="stop-color:#F89521"/>
				<stop  offset="0.5" style="stop-color:#F06724"/>
				<stop  offset="1" style="stop-color:#E05D26"/>
			</linearGradient>
			<rect x="159.1" y="22.5" class="st11" width="126.5" height="131.6"/>
		</g>
	</g>
</g>
</svg>
