<svg xmlns="http://www.w3.org/2000/svg" viewBox="0 0 199.94 123.62"><defs><style>.cls-1{fill:#f79410;}.cls-2{fill:#ff5f00;}.cls-3{fill:#eb001b;}.cls-4{fill:#f79e1b;}</style></defs><title>Ресурс 2</title><g id="Слой_2" data-name="Слой 2"><g id="Слой_1-2" data-name="Слой 1"><path class="cls-1" d="M198.05,100.1V97.7h-.62l-.72,1.65L196,97.7h-.63v2.4h.44V98.29l.68,1.56h.46l.67-1.56v1.81Zm-4,0v-2h.8v-.4h-2v.4h.8v2Z"/><path class="cls-2" d="M127,110.41H72.93V13.22H127Z"/><path class="cls-3" d="M76.39,61.81A61.67,61.67,0,0,1,100,13.22a61.81,61.81,0,1,0,0,97.18A61.68,61.68,0,0,1,76.39,61.81"/><path class="cls-4" d="M199.94,61.81a61.8,61.8,0,0,1-100,48.59,61.8,61.8,0,0,0,0-97.18,61.8,61.8,0,0,1,100,48.59"/></g></g></svg>