<?xml version="1.0" encoding="utf-8"?>
<!-- Generator: Adobe Illustrator 23.1.0, SVG Export Plug-In . SVG Version: 6.00 Build 0)  -->
<svg version="1.1" id="Layer_1" xmlns="http://www.w3.org/2000/svg" xmlns:xlink="http://www.w3.org/1999/xlink" x="0px" y="0px"
	 viewBox="0 0 237.8 73.8" style="enable-background:new 0 0 237.8 73.8;" xml:space="preserve">
<style type="text/css">
	.st0{fill:#222222;}
	.st1{fill:url(#SVGID_2_);}
	.st2{clip-path:url(#SVGID_4_);fill:url(#SVGID_6_);}
	.st3{fill:url(#SVGID_7_);}
	.st4{clip-path:url(#SVGID_10_);fill:url(#SVGID_11_);}
	.st5{fill:url(#SVGID_12_);}
	.st6{clip-path:url(#SVGID_15_);fill:url(#SVGID_16_);}
	.st7{fill:url(#SVGID_18_);}
	.st8{clip-path:url(#SVGID_20_);fill:url(#SVGID_22_);}
	.st9{fill:url(#SVGID_23_);}
	.st10{clip-path:url(#SVGID_25_);fill:url(#SVGID_26_);}
	.st11{fill:url(#SVGID_27_);}
	.st12{clip-path:url(#SVGID_29_);fill:url(#SVGID_30_);}
	.st13{fill:#FFFFFF;}
</style>
<g>
	<path class="st0" d="M228.9,3.5H8.8c-3.4,0-6.3,2.8-6.3,6.3v54.1c0,3.4,2.8,6.3,6.3,6.3h220.1c3.4,0,6.3-2.8,6.3-6.3V9.8
		C235.2,6.3,232.4,3.5,228.9,3.5z"/>
	<g>
		<g>
			<g>
				
					<linearGradient id="SVGID_2_" gradientUnits="userSpaceOnUse" x1="38.3951" y1="112.495" x2="50.7581" y2="112.495" gradientTransform="matrix(1 0 0 -1 0 158.2918)">
					<stop  offset="0" style="stop-color:#F8951D"/>
					<stop  offset="0.5" style="stop-color:#F26424"/>
					<stop  offset="1" style="stop-color:#E15C25"/>
				</linearGradient>
				<path id="SVGID_1_" class="st1" d="M40.2,40.4c-1,0.4-1.8,1.7-1.8,2.8v8.7c0,0.3,0.1,0.6,0.3,0.9c0.2,0.2,0.4,0.3,0.7,0.3l0,0
					c0.2,0,0.4-0.1,0.6-0.2l9-4.1c1-0.4,1.8-1.7,1.8-2.8v-4.9c0-0.7-6.2-2.7-6.2-2.7L40.2,40.4z"/>
			</g>
			<g>
				<defs>
					<path id="SVGID_3_" d="M40.2,40.4c-1,0.4-1.8,1.7-1.8,2.8v8.7c0,0.3,0.1,0.6,0.3,0.9c0.2,0.2,0.4,0.3,0.7,0.3l0,0
						c0.2,0,0.4-0.1,0.6-0.2l9-4.1c1-0.4,1.8-1.7,1.8-2.8v-4.9c0-0.7-6.2-2.7-6.2-2.7L40.2,40.4z"/>
				</defs>
				<clipPath id="SVGID_4_">
					<use xlink:href="#SVGID_3_"  style="overflow:visible;"/>
				</clipPath>
				
					<linearGradient id="SVGID_6_" gradientUnits="userSpaceOnUse" x1="-2421.0007" y1="1024.8612" x2="-2420.6279" y2="1024.8612" gradientTransform="matrix(33.1956 0 0 -33.1956 80404.9531 34066.6797)">
					<stop  offset="0" style="stop-color:#F8951D"/>
					<stop  offset="0.5" style="stop-color:#F26424"/>
					<stop  offset="1" style="stop-color:#E15C25"/>
				</linearGradient>
				<rect x="38.3" y="38.4" class="st2" width="12.4" height="14.7"/>
			</g>
		</g>
		<g>
			<g>
				
					<linearGradient id="SVGID_7_" gradientUnits="userSpaceOnUse" x1="34.4702" y1="119.895" x2="50.7702" y2="119.895" gradientTransform="matrix(1 0 0 -1 0 158.2918)">
					<stop  offset="0" style="stop-color:#F8951D"/>
					<stop  offset="0.5" style="stop-color:#F26424"/>
					<stop  offset="1" style="stop-color:#E15C25"/>
				</linearGradient>
				<path id="SVGID_5_" class="st3" d="M34.4,33.6c0,1.4,1.1,3.1,2.4,3.7l13.9,6.4v-3.2L34.4,33V33.6z"/>
			</g>
			<g>
				<defs>
					<path id="SVGID_8_" d="M34.4,33.6c0,1.4,1.1,3.1,2.4,3.7l13.9,6.4v-3.2L34.4,33V33.6z"/>
				</defs>
				<clipPath id="SVGID_10_">
					<use xlink:href="#SVGID_8_"  style="overflow:visible;"/>
				</clipPath>
				
					<linearGradient id="SVGID_11_" gradientUnits="userSpaceOnUse" x1="-2438.0908" y1="1033.8772" x2="-2437.7183" y2="1033.8772" gradientTransform="matrix(43.7471 0 0 -43.7471 106693.875 45267.5273)">
					<stop  offset="0" style="stop-color:#F8951D"/>
					<stop  offset="0.5" style="stop-color:#F26424"/>
					<stop  offset="1" style="stop-color:#E15C25"/>
				</linearGradient>
				<rect x="34.4" y="33" class="st4" width="16.3" height="10.7"/>
			</g>
		</g>
		<g>
			<g>
				
					<linearGradient id="SVGID_12_" gradientUnits="userSpaceOnUse" x1="34.4702" y1="129.145" x2="50.7702" y2="129.145" gradientTransform="matrix(1 0 0 -1 0 158.2918)">
					<stop  offset="0" style="stop-color:#F8951D"/>
					<stop  offset="0.5" style="stop-color:#F26424"/>
					<stop  offset="1" style="stop-color:#E15C25"/>
				</linearGradient>
				<path id="SVGID_9_" class="st5" d="M38.2,26.7l-1.7-0.8c-0.6-0.3-0.9-0.9-1-1.5v-1.1c0-0.6,0.4-0.9,1-0.6l1.7,0.8
					c0.6,0.3,0.9,0.9,1,1.5v1.1c0,0.4-0.3,0.7-0.6,0.7C38.5,26.7,38.4,26.7,38.2,26.7 M34.4,22.2v7.9l16.3,7.5V30
					c0-1.4-1.1-3.1-2.4-3.7l-11.7-5.5c-0.3-0.1-0.6-0.2-0.9-0.2C34.9,20.6,34.4,21.2,34.4,22.2"/>
			</g>
			<g>
				<defs>
					<path id="SVGID_14_" d="M38.2,26.7l-1.7-0.8c-0.6-0.3-0.9-0.9-1-1.5v-1.1c0-0.6,0.4-0.9,1-0.6l1.7,0.8c0.6,0.3,0.9,0.9,1,1.5
						v1.1c0,0.4-0.3,0.7-0.6,0.7C38.5,26.7,38.4,26.7,38.2,26.7 M34.4,22.2v7.9l16.3,7.5V30c0-1.4-1.1-3.1-2.4-3.7l-11.7-5.5
						c-0.3-0.1-0.6-0.2-0.9-0.2C34.9,20.6,34.4,21.2,34.4,22.2"/>
				</defs>
				<clipPath id="SVGID_15_">
					<use xlink:href="#SVGID_14_"  style="overflow:visible;"/>
				</clipPath>
				
					<linearGradient id="SVGID_16_" gradientUnits="userSpaceOnUse" x1="-2438.0908" y1="1033.5203" x2="-2437.7183" y2="1033.5203" gradientTransform="matrix(43.7471 0 0 -43.7471 106693.875 45242.6094)">
					<stop  offset="0" style="stop-color:#F8951D"/>
					<stop  offset="0.5" style="stop-color:#F26424"/>
					<stop  offset="1" style="stop-color:#E15C25"/>
				</linearGradient>
				<rect x="34.4" y="20.6" class="st6" width="16.3" height="16.9"/>
			</g>
		</g>
		<g>
			<g>
				
					<linearGradient id="SVGID_18_" gradientUnits="userSpaceOnUse" x1="53.3801" y1="112.495" x2="65.7421" y2="112.495" gradientTransform="matrix(1 0 0 -1 0 158.2918)">
					<stop  offset="0" style="stop-color:#F8951D"/>
					<stop  offset="0.5" style="stop-color:#F26424"/>
					<stop  offset="1" style="stop-color:#E15C25"/>
				</linearGradient>
				<path id="SVGID_13_" class="st7" d="M53.3,41.1V46c0,1.1,0.8,2.3,1.8,2.8l9,4.1c0.2,0.1,0.4,0.2,0.6,0.2l0,0
					c0.3,0,0.5-0.1,0.7-0.3s0.3-0.6,0.3-0.9v-8.7c0-1.1-0.8-2.3-1.8-2.8l-4.4-2C59.5,38.4,53.3,40.4,53.3,41.1"/>
			</g>
			<g>
				<defs>
					<path id="SVGID_19_" d="M53.3,41.1V46c0,1.1,0.8,2.3,1.8,2.8l9,4.1c0.2,0.1,0.4,0.2,0.6,0.2l0,0c0.3,0,0.5-0.1,0.7-0.3
						s0.3-0.6,0.3-0.9v-8.7c0-1.1-0.8-2.3-1.8-2.8l-4.4-2C59.5,38.4,53.3,40.4,53.3,41.1"/>
				</defs>
				<clipPath id="SVGID_20_">
					<use xlink:href="#SVGID_19_"  style="overflow:visible;"/>
				</clipPath>
				
					<linearGradient id="SVGID_22_" gradientUnits="userSpaceOnUse" x1="-2562.5771" y1="1024.8601" x2="-2562.2046" y2="1024.8601" gradientTransform="matrix(-33.1954 0 0 -33.1954 -85000.0234 34066.4375)">
					<stop  offset="0" style="stop-color:#F8951D"/>
					<stop  offset="0.5" style="stop-color:#F26424"/>
					<stop  offset="1" style="stop-color:#E15C25"/>
				</linearGradient>
				<rect x="53.3" y="38.4" class="st8" width="12.4" height="14.7"/>
			</g>
		</g>
		<g>
			<g>
				
					<linearGradient id="SVGID_23_" gradientUnits="userSpaceOnUse" x1="53.3725" y1="119.895" x2="69.6725" y2="119.895" gradientTransform="matrix(1 0 0 -1 0 158.2918)">
					<stop  offset="0" style="stop-color:#F8951D"/>
					<stop  offset="0.5" style="stop-color:#F26424"/>
					<stop  offset="1" style="stop-color:#E15C25"/>
				</linearGradient>
				<path id="SVGID_17_" class="st9" d="M53.3,40.5v3.2l13.9-6.4c1.3-0.6,2.4-2.3,2.4-3.7V33L53.3,40.5z"/>
			</g>
			<g>
				<defs>
					<path id="SVGID_24_" d="M53.3,40.5v3.2l13.9-6.4c1.3-0.6,2.4-2.3,2.4-3.7V33L53.3,40.5z"/>
				</defs>
				<clipPath id="SVGID_25_">
					<use xlink:href="#SVGID_24_"  style="overflow:visible;"/>
				</clipPath>
				
					<linearGradient id="SVGID_26_" gradientUnits="userSpaceOnUse" x1="-2545.5208" y1="1033.8765" x2="-2545.1482" y2="1033.8765" gradientTransform="matrix(-43.7471 0 0 -43.7471 -111289.4922 45267.4961)">
					<stop  offset="0" style="stop-color:#F8951D"/>
					<stop  offset="0.5" style="stop-color:#F26424"/>
					<stop  offset="1" style="stop-color:#E15C25"/>
				</linearGradient>
				<rect x="53.3" y="33" class="st10" width="16.3" height="10.7"/>
			</g>
		</g>
		<g>
			<g>
				
					<linearGradient id="SVGID_27_" gradientUnits="userSpaceOnUse" x1="53.3725" y1="129.245" x2="69.6725" y2="129.245" gradientTransform="matrix(1 0 0 -1 0 158.2918)">
					<stop  offset="0" style="stop-color:#F8951D"/>
					<stop  offset="0.5" style="stop-color:#F26424"/>
					<stop  offset="1" style="stop-color:#E15C25"/>
				</linearGradient>
				<path id="SVGID_21_" class="st11" d="M64.9,26v-1.2c0-0.6,0.4-1.2,1-1.5l1.7-0.8c0.5-0.3,1,0,1,0.6v1.1c0,0.6-0.4,1.2-1,1.5
					l-1.7,0.8c-0.1,0.1-0.3,0.1-0.4,0.1C65.1,26.7,64.9,26.5,64.9,26 M67.5,20.8l-11.7,5.4c-1.3,0.6-2.4,2.3-2.4,3.7v7.6L69.7,30
					v-7.9c0-1-0.5-1.6-1.3-1.6C68,20.6,67.7,20.7,67.5,20.8"/>
			</g>
			<g>
				<defs>
					<path id="SVGID_28_" d="M64.9,26v-1.2c0-0.6,0.4-1.2,1-1.5l1.7-0.8c0.5-0.3,1,0,1,0.6v1.1c0,0.6-0.4,1.2-1,1.5l-1.7,0.8
						c-0.1,0.1-0.3,0.1-0.4,0.1C65.1,26.7,64.9,26.5,64.9,26 M67.5,20.8l-11.7,5.4c-1.3,0.6-2.4,2.3-2.4,3.7v7.6L69.7,30v-7.9
						c0-1-0.5-1.6-1.3-1.6C68,20.6,67.7,20.7,67.5,20.8"/>
				</defs>
				<clipPath id="SVGID_29_">
					<use xlink:href="#SVGID_28_"  style="overflow:visible;"/>
				</clipPath>
				
					<linearGradient id="SVGID_30_" gradientUnits="userSpaceOnUse" x1="-2545.5208" y1="1033.5195" x2="-2545.1482" y2="1033.5195" gradientTransform="matrix(-43.7471 0 0 -43.7471 -111289.4922 45242.5781)">
					<stop  offset="0" style="stop-color:#F8951D"/>
					<stop  offset="0.5" style="stop-color:#F26424"/>
					<stop  offset="1" style="stop-color:#E15C25"/>
				</linearGradient>
				<rect x="53.3" y="20.6" class="st12" width="16.3" height="16.9"/>
			</g>
		</g>
	</g>
	<g>
		<path class="st13" d="M89.1,39.3V46h-2.3V28.9h6.3c1.9,0,3.3,0.5,4.4,1.4s1.6,2.2,1.6,3.8c0,1.7-0.5,2.9-1.6,3.8s-2.5,1.3-4.4,1.3
			h-4V39.3z M89.1,37.5h4c1.2,0,2.1-0.3,2.8-0.9c0.6-0.6,1-1.4,1-2.5c0-1-0.3-1.8-1-2.4s-1.5-0.9-2.6-1h-4.2
			C89.1,30.7,89.1,37.5,89.1,37.5z"/>
		<path class="st13" d="M104,46h-2.2V28h2.2V46z"/>
		<path class="st13" d="M115.3,46c-0.1-0.3-0.2-0.7-0.3-1.3c-1,1-2.2,1.6-3.6,1.6c-1.3,0-2.3-0.4-3.1-1.1s-1.2-1.6-1.2-2.7
			c0-1.3,0.5-2.3,1.5-3.1s2.4-1.1,4.2-1.1h2.1v-1c0-0.8-0.2-1.4-0.7-1.8s-1.1-0.7-2-0.7c-0.8,0-1.4,0.2-1.9,0.6s-0.8,0.9-0.8,1.4
			h-2.2c0-0.6,0.2-1.2,0.7-1.8s1.1-1.1,1.8-1.4s1.6-0.5,2.5-0.5c1.5,0,2.6,0.4,3.4,1.1s1.3,1.7,1.3,3V43c0,1.2,0.1,2.1,0.4,2.8V46
			H115.3z M111.7,44.3c0.7,0,1.3-0.2,1.9-0.5s1.1-0.8,1.3-1.4v-2.6h-1.7c-2.7,0-4,0.8-4,2.3c0,0.7,0.2,1.2,0.7,1.6
			S110.9,44.3,111.7,44.3z"/>
		<path class="st13" d="M123.4,30.2v3.1h2.4V35h-2.4v7.9c0,0.5,0.1,0.9,0.3,1.1c0.2,0.3,0.6,0.4,1.1,0.4c0.3,0,0.6,0,1-0.1V46
			c-0.6,0.2-1.1,0.2-1.7,0.2c-1,0-1.7-0.3-2.2-0.9s-0.7-1.4-0.7-2.5v-7.9h-2.3v-1.6h2.3v-3.1H123.4z"/>
		<path class="st13" d="M127.4,39.5c0-1.2,0.2-2.4,0.7-3.4s1.2-1.8,2-2.3s1.9-0.8,3-0.8c1.7,0,3.1,0.6,4.2,1.8s1.6,2.8,1.6,4.8v0.2
			c0,1.2-0.2,2.3-0.7,3.3s-1.1,1.7-2,2.3s-1.9,0.8-3,0.8c-1.7,0-3.1-0.6-4.2-1.8s-1.6-2.8-1.6-4.7V39.5z M129.6,39.8
			c0,1.4,0.3,2.5,1,3.4s1.5,1.3,2.6,1.3s2-0.4,2.6-1.3s1-2.1,1-3.6c0-1.4-0.3-2.5-1-3.4s-1.5-1.3-2.6-1.3s-1.9,0.4-2.6,1.3
			S129.6,38.2,129.6,39.8z"/>
		<path class="st13" d="M143.7,33.3l0.1,1.6c1-1.2,2.2-1.8,3.8-1.8c2.7,0,4,1.5,4.1,4.5V46h-2.2v-8.4c0-0.9-0.2-1.6-0.6-2
			s-1-0.7-1.9-0.7c-0.7,0-1.3,0.2-1.9,0.6s-0.9,0.9-1.2,1.5v9h-2.2V33.3H143.7z"/>
		<path class="st13" d="M163.4,39.3V46h-2.3V28.9h6.3c1.9,0,3.3,0.5,4.4,1.4s1.6,2.2,1.6,3.8c0,1.7-0.5,2.9-1.6,3.8
			s-2.5,1.3-4.4,1.3h-4V39.3z M163.4,37.5h4c1.2,0,2.1-0.3,2.8-0.9c0.6-0.6,1-1.4,1-2.5c0-1-0.3-1.8-1-2.4s-1.5-0.9-2.6-1h-4.2V37.5
			z"/>
		<path class="st13" d="M183.7,46c-0.1-0.3-0.2-0.7-0.3-1.3c-1,1-2.2,1.6-3.6,1.6c-1.3,0-2.3-0.4-3.1-1.1s-1.2-1.6-1.2-2.7
			c0-1.3,0.5-2.3,1.5-3.1s2.4-1.1,4.2-1.1h2.1v-1c0-0.8-0.2-1.4-0.7-1.8s-1.1-0.7-2-0.7c-0.8,0-1.4,0.2-1.9,0.6s-0.8,0.9-0.8,1.4
			h-2.2c0-0.6,0.2-1.2,0.7-1.8s1.1-1.1,1.8-1.4s1.6-0.5,2.5-0.5c1.5,0,2.6,0.4,3.4,1.1s1.3,1.7,1.3,3V43c0,1.2,0.1,2.1,0.4,2.8V46
			H183.7z M180.1,44.3c0.7,0,1.3-0.2,1.9-0.5s1.1-0.8,1.3-1.4v-2.6h-1.7c-2.7,0-4,0.8-4,2.3c0,0.7,0.2,1.2,0.7,1.6
			S179.4,44.3,180.1,44.3z"/>
		<path class="st13" d="M192.9,42.8l3-9.5h2.3l-5.1,14.6c-0.8,2.1-2,3.2-3.8,3.2h-0.4l-0.8-0.2v-1.8h0.6c0.7,0,1.3-0.1,1.7-0.4
			s0.7-0.8,1-1.6l0.5-1.3l-4.5-12.5h2.4L192.9,42.8z"/>
	</g>
</g>
</svg>
