<?xml version="1.0" encoding="utf-8"?>
<!-- Generator: Adobe Illustrator 23.1.0, SVG Export Plug-In . SVG Version: 6.00 Build 0)  -->
<svg version="1.1" id="Layer_1" xmlns="http://www.w3.org/2000/svg" xmlns:xlink="http://www.w3.org/1999/xlink" x="0px" y="0px"
	 viewBox="0 0 237.8 73.8" style="enable-background:new 0 0 237.8 73.8;" xml:space="preserve">
<style type="text/css">
	.st0{fill:#FFFFFF;stroke:#E55F26;stroke-miterlimit:10;}
	.st1{fill:url(#SVGID_1_);}
	.st2{clip-path:url(#SVGID_3_);fill:url(#SVGID_4_);}
	.st3{fill:url(#SVGID_5_);}
	.st4{clip-path:url(#SVGID_7_);fill:url(#SVGID_8_);}
	.st5{fill:url(#SVGID_9_);}
	.st6{clip-path:url(#SVGID_11_);fill:url(#SVGID_12_);}
	.st7{fill:url(#SVGID_13_);}
	.st8{clip-path:url(#SVGID_15_);fill:url(#SVGID_16_);}
	.st9{fill:url(#SVGID_17_);}
	.st10{clip-path:url(#SVGID_19_);fill:url(#SVGID_20_);}
	.st11{fill:url(#SVGID_21_);}
	.st12{clip-path:url(#SVGID_23_);fill:url(#SVGID_24_);}
	.st13{fill:#222222;}
</style>
<g>
	<path class="st0" d="M228.8,3.3H8.7c-3.4,0-6.3,2.8-6.3,6.3v54.1c0,3.4,2.8,6.3,6.3,6.3h220.1c3.4,0,6.3-2.8,6.3-6.3V9.5
		C235.1,6.1,232.3,3.3,228.8,3.3z"/>
	<g>
		<g>
			<g>
				
					<linearGradient id="SVGID_1_" gradientUnits="userSpaceOnUse" x1="38.2643" y1="112.6959" x2="50.6273" y2="112.6959" gradientTransform="matrix(1 0 0 -1 0 158.2918)">
					<stop  offset="0" style="stop-color:#F8951D"/>
					<stop  offset="0.5" style="stop-color:#F26424"/>
					<stop  offset="1" style="stop-color:#E15C25"/>
				</linearGradient>
				<path id="SVGID_25_" class="st1" d="M40.1,40.2c-1,0.4-1.8,1.7-1.8,2.8v8.7c0,0.3,0.1,0.6,0.3,0.9c0.2,0.2,0.4,0.3,0.7,0.3l0,0
					c0.2,0,0.4-0.1,0.6-0.2l9-4.1c1-0.4,1.8-1.7,1.8-2.8v-4.9c0-0.7-6.2-2.7-6.2-2.7L40.1,40.2z"/>
			</g>
			<g>
				<defs>
					<path id="SVGID_2_" d="M40.1,40.2c-1,0.4-1.8,1.7-1.8,2.8v8.7c0,0.3,0.1,0.6,0.3,0.9c0.2,0.2,0.4,0.3,0.7,0.3l0,0
						c0.2,0,0.4-0.1,0.6-0.2l9-4.1c1-0.4,1.8-1.7,1.8-2.8v-4.9c0-0.7-6.2-2.7-6.2-2.7L40.1,40.2z"/>
				</defs>
				<clipPath id="SVGID_3_">
					<use xlink:href="#SVGID_2_"  style="overflow:visible;"/>
				</clipPath>
				
					<linearGradient id="SVGID_4_" gradientUnits="userSpaceOnUse" x1="-2421.0046" y1="1024.8673" x2="-2420.6318" y2="1024.8673" gradientTransform="matrix(33.1956 0 0 -33.1956 80404.9531 34066.6797)">
					<stop  offset="0" style="stop-color:#F8951D"/>
					<stop  offset="0.5" style="stop-color:#F26424"/>
					<stop  offset="1" style="stop-color:#E15C25"/>
				</linearGradient>
				<rect x="38.2" y="38.2" class="st2" width="12.4" height="14.7"/>
			</g>
		</g>
		<g>
			<g>
				
					<linearGradient id="SVGID_5_" gradientUnits="userSpaceOnUse" x1="34.3394" y1="120.0959" x2="50.6394" y2="120.0959" gradientTransform="matrix(1 0 0 -1 0 158.2918)">
					<stop  offset="0" style="stop-color:#F8951D"/>
					<stop  offset="0.5" style="stop-color:#F26424"/>
					<stop  offset="1" style="stop-color:#E15C25"/>
				</linearGradient>
				<path id="SVGID_29_" class="st3" d="M34.3,33.4c0,1.4,1.1,3.1,2.4,3.7l13.9,6.4v-3.2l-16.3-7.5V33.4z"/>
			</g>
			<g>
				<defs>
					<path id="SVGID_6_" d="M34.3,33.4c0,1.4,1.1,3.1,2.4,3.7l13.9,6.4v-3.2l-16.3-7.5V33.4z"/>
				</defs>
				<clipPath id="SVGID_7_">
					<use xlink:href="#SVGID_6_"  style="overflow:visible;"/>
				</clipPath>
				
					<linearGradient id="SVGID_8_" gradientUnits="userSpaceOnUse" x1="-2438.0938" y1="1033.8817" x2="-2437.7212" y2="1033.8817" gradientTransform="matrix(43.7471 0 0 -43.7471 106693.875 45267.5273)">
					<stop  offset="0" style="stop-color:#F8951D"/>
					<stop  offset="0.5" style="stop-color:#F26424"/>
					<stop  offset="1" style="stop-color:#E15C25"/>
				</linearGradient>
				<rect x="34.3" y="32.8" class="st4" width="16.3" height="10.7"/>
			</g>
		</g>
		<g>
			<g>
				
					<linearGradient id="SVGID_9_" gradientUnits="userSpaceOnUse" x1="34.3394" y1="129.3459" x2="50.6394" y2="129.3459" gradientTransform="matrix(1 0 0 -1 0 158.2918)">
					<stop  offset="0" style="stop-color:#F8951D"/>
					<stop  offset="0.5" style="stop-color:#F26424"/>
					<stop  offset="1" style="stop-color:#E15C25"/>
				</linearGradient>
				<path id="SVGID_33_" class="st5" d="M38.1,26.5l-1.7-0.8c-0.6-0.3-0.9-0.9-1-1.5v-1.1c0-0.6,0.4-0.9,1-0.6l1.7,0.8
					c0.6,0.3,0.9,0.9,1,1.5v1.1c0,0.4-0.3,0.7-0.6,0.7C38.4,26.5,38.3,26.5,38.1,26.5 M34.3,22v7.9l16.3,7.5v-7.6
					c0-1.4-1.1-3.1-2.4-3.7l-11.7-5.5c-0.3-0.1-0.6-0.2-0.9-0.2C34.8,20.4,34.3,21,34.3,22"/>
			</g>
			<g>
				<defs>
					<path id="SVGID_10_" d="M38.1,26.5l-1.7-0.8c-0.6-0.3-0.9-0.9-1-1.5v-1.1c0-0.6,0.4-0.9,1-0.6l1.7,0.8c0.6,0.3,0.9,0.9,1,1.5
						v1.1c0,0.4-0.3,0.7-0.6,0.7C38.4,26.5,38.3,26.5,38.1,26.5 M34.3,22v7.9l16.3,7.5v-7.6c0-1.4-1.1-3.1-2.4-3.7l-11.7-5.5
						c-0.3-0.1-0.6-0.2-0.9-0.2C34.8,20.4,34.3,21,34.3,22"/>
				</defs>
				<clipPath id="SVGID_11_">
					<use xlink:href="#SVGID_10_"  style="overflow:visible;"/>
				</clipPath>
				
					<linearGradient id="SVGID_12_" gradientUnits="userSpaceOnUse" x1="-2438.0938" y1="1033.5248" x2="-2437.7212" y2="1033.5248" gradientTransform="matrix(43.7471 0 0 -43.7471 106693.875 45242.6094)">
					<stop  offset="0" style="stop-color:#F8951D"/>
					<stop  offset="0.5" style="stop-color:#F26424"/>
					<stop  offset="1" style="stop-color:#E15C25"/>
				</linearGradient>
				<rect x="34.3" y="20.4" class="st6" width="16.3" height="16.9"/>
			</g>
		</g>
		<g>
			<g>
				
					<linearGradient id="SVGID_13_" gradientUnits="userSpaceOnUse" x1="53.2493" y1="112.6959" x2="65.6113" y2="112.6959" gradientTransform="matrix(1 0 0 -1 0 158.2918)">
					<stop  offset="0" style="stop-color:#F8951D"/>
					<stop  offset="0.5" style="stop-color:#F26424"/>
					<stop  offset="1" style="stop-color:#E15C25"/>
				</linearGradient>
				<path id="SVGID_37_" class="st7" d="M53.2,40.9v4.9c0,1.1,0.8,2.3,1.8,2.8l9,4.1c0.2,0.1,0.4,0.2,0.6,0.2l0,0
					c0.3,0,0.5-0.1,0.7-0.3c0.2-0.2,0.3-0.6,0.3-0.9V43c0-1.1-0.8-2.3-1.8-2.8l-4.4-2C59.4,38.2,53.2,40.2,53.2,40.9"/>
			</g>
			<g>
				<defs>
					<path id="SVGID_14_" d="M53.2,40.9v4.9c0,1.1,0.8,2.3,1.8,2.8l9,4.1c0.2,0.1,0.4,0.2,0.6,0.2l0,0c0.3,0,0.5-0.1,0.7-0.3
						c0.2-0.2,0.3-0.6,0.3-0.9V43c0-1.1-0.8-2.3-1.8-2.8l-4.4-2C59.4,38.2,53.2,40.2,53.2,40.9"/>
				</defs>
				<clipPath id="SVGID_15_">
					<use xlink:href="#SVGID_14_"  style="overflow:visible;"/>
				</clipPath>
				
					<linearGradient id="SVGID_16_" gradientUnits="userSpaceOnUse" x1="-2562.5732" y1="1024.8662" x2="-2562.2007" y2="1024.8662" gradientTransform="matrix(-33.1954 0 0 -33.1954 -85000.0234 34066.4375)">
					<stop  offset="0" style="stop-color:#F8951D"/>
					<stop  offset="0.5" style="stop-color:#F26424"/>
					<stop  offset="1" style="stop-color:#E15C25"/>
				</linearGradient>
				<rect x="53.2" y="38.2" class="st8" width="12.4" height="14.7"/>
			</g>
		</g>
		<g>
			<g>
				
					<linearGradient id="SVGID_17_" gradientUnits="userSpaceOnUse" x1="53.2417" y1="120.0959" x2="69.5417" y2="120.0959" gradientTransform="matrix(1 0 0 -1 0 158.2918)">
					<stop  offset="0" style="stop-color:#F8951D"/>
					<stop  offset="0.5" style="stop-color:#F26424"/>
					<stop  offset="1" style="stop-color:#E15C25"/>
				</linearGradient>
				<path id="SVGID_41_" class="st9" d="M53.2,40.3v3.2l13.9-6.4c1.3-0.6,2.4-2.3,2.4-3.7v-0.6L53.2,40.3z"/>
			</g>
			<g>
				<defs>
					<path id="SVGID_18_" d="M53.2,40.3v3.2l13.9-6.4c1.3-0.6,2.4-2.3,2.4-3.7v-0.6L53.2,40.3z"/>
				</defs>
				<clipPath id="SVGID_19_">
					<use xlink:href="#SVGID_18_"  style="overflow:visible;"/>
				</clipPath>
				
					<linearGradient id="SVGID_20_" gradientUnits="userSpaceOnUse" x1="-2545.5178" y1="1033.8811" x2="-2545.1453" y2="1033.8811" gradientTransform="matrix(-43.7471 0 0 -43.7471 -111289.4922 45267.4961)">
					<stop  offset="0" style="stop-color:#F8951D"/>
					<stop  offset="0.5" style="stop-color:#F26424"/>
					<stop  offset="1" style="stop-color:#E15C25"/>
				</linearGradient>
				<rect x="53.2" y="32.8" class="st10" width="16.3" height="10.7"/>
			</g>
		</g>
		<g>
			<g>
				
					<linearGradient id="SVGID_21_" gradientUnits="userSpaceOnUse" x1="53.2417" y1="129.4459" x2="69.5332" y2="129.4459" gradientTransform="matrix(1 0 0 -1 0 158.2918)">
					<stop  offset="0" style="stop-color:#F8951D"/>
					<stop  offset="0.5" style="stop-color:#F26424"/>
					<stop  offset="1" style="stop-color:#E15C25"/>
				</linearGradient>
				<path id="SVGID_45_" class="st11" d="M64.8,25.8v-1.2c0-0.6,0.4-1.2,1-1.5l1.7-0.8c0.5-0.3,1,0,1,0.6V24c0,0.6-0.4,1.2-1,1.5
					l-1.7,0.8c-0.1,0.1-0.3,0.1-0.4,0.1C65,26.5,64.8,26.3,64.8,25.8 M67.4,20.6L55.7,26c-1.3,0.6-2.4,2.3-2.4,3.7v7.6l16.2-7.5
					v-7.9c0-1-0.5-1.6-1.3-1.6C67.9,20.4,67.6,20.5,67.4,20.6"/>
			</g>
			<g>
				<defs>
					<path id="SVGID_22_" d="M64.8,25.8v-1.2c0-0.6,0.4-1.2,1-1.5l1.7-0.8c0.5-0.3,1,0,1,0.6V24c0,0.6-0.4,1.2-1,1.5l-1.7,0.8
						c-0.1,0.1-0.3,0.1-0.4,0.1C65,26.5,64.8,26.3,64.8,25.8 M67.4,20.6L55.7,26c-1.3,0.6-2.4,2.3-2.4,3.7v7.6l16.2-7.5v-7.9
						c0-1-0.5-1.6-1.3-1.6C67.9,20.4,67.6,20.5,67.4,20.6"/>
				</defs>
				<clipPath id="SVGID_23_">
					<use xlink:href="#SVGID_22_"  style="overflow:visible;"/>
				</clipPath>
				
					<linearGradient id="SVGID_24_" gradientUnits="userSpaceOnUse" x1="-2545.5178" y1="1033.524" x2="-2545.1453" y2="1033.524" gradientTransform="matrix(-43.7471 0 0 -43.7471 -111289.4922 45242.5781)">
					<stop  offset="0" style="stop-color:#F8951D"/>
					<stop  offset="0.5" style="stop-color:#F26424"/>
					<stop  offset="1" style="stop-color:#E15C25"/>
				</linearGradient>
				<rect x="53.2" y="20.4" class="st12" width="16.3" height="16.9"/>
			</g>
		</g>
	</g>
	<g>
		<path class="st13" d="M89,39.1v6.7h-2.3V28.7H93c1.9,0,3.3,0.5,4.4,1.4s1.6,2.2,1.6,3.8c0,1.7-0.5,2.9-1.6,3.8S94.9,39,93,39h-4
			V39.1z M89,37.3h4c1.2,0,2.1-0.3,2.8-0.9c0.6-0.6,1-1.4,1-2.5c0-1-0.3-1.8-1-2.4s-1.5-0.9-2.6-1H89C89,30.5,89,37.3,89,37.3z"/>
		<path class="st13" d="M103.9,45.8h-2.2v-18h2.2V45.8z"/>
		<path class="st13" d="M115.2,45.8c-0.1-0.3-0.2-0.7-0.3-1.3c-1,1-2.2,1.6-3.6,1.6c-1.3,0-2.3-0.4-3.1-1.1s-1.2-1.6-1.2-2.7
			c0-1.3,0.5-2.3,1.5-3.1s2.4-1.1,4.2-1.1h2.1v-1c0-0.8-0.2-1.4-0.7-1.8s-1.1-0.7-2-0.7c-0.8,0-1.4,0.2-1.9,0.6s-0.8,0.9-0.8,1.4
			h-2.2c0-0.6,0.2-1.2,0.7-1.8s1.1-1.1,1.8-1.4s1.6-0.5,2.5-0.5c1.5,0,2.6,0.4,3.4,1.1s1.3,1.7,1.3,3v5.8c0,1.2,0.1,2.1,0.4,2.8v0.2
			H115.2z M111.6,44.1c0.7,0,1.3-0.2,1.9-0.5s1.1-0.8,1.3-1.4v-2.6h-1.7c-2.7,0-4,0.8-4,2.3c0,0.7,0.2,1.2,0.7,1.6
			S110.8,44.1,111.6,44.1z"/>
		<path class="st13" d="M123.3,30v3.1h2.4v1.7h-2.4v7.9c0,0.5,0.1,0.9,0.3,1.1c0.2,0.3,0.6,0.4,1.1,0.4c0.3,0,0.6,0,1-0.1v1.7
			c-0.6,0.2-1.1,0.2-1.7,0.2c-1,0-1.7-0.3-2.2-0.9s-0.7-1.4-0.7-2.5v-7.9h-2.3v-1.6h2.3V30H123.3z"/>
		<path class="st13" d="M127.3,39.3c0-1.2,0.2-2.4,0.7-3.4s1.2-1.8,2-2.3s1.9-0.8,3-0.8c1.7,0,3.1,0.6,4.2,1.8s1.6,2.8,1.6,4.8v0.2
			c0,1.2-0.2,2.3-0.7,3.3s-1.1,1.7-2,2.3s-1.9,0.8-3,0.8c-1.7,0-3.1-0.6-4.2-1.8s-1.6-2.8-1.6-4.7V39.3z M129.5,39.6
			c0,1.4,0.3,2.5,1,3.4s1.5,1.3,2.6,1.3s2-0.4,2.6-1.3s1-2.1,1-3.6c0-1.4-0.3-2.5-1-3.4s-1.5-1.3-2.6-1.3s-1.9,0.4-2.6,1.3
			S129.5,38,129.5,39.6z"/>
		<path class="st13" d="M143.6,33.1l0.1,1.6c1-1.2,2.2-1.8,3.8-1.8c2.7,0,4,1.5,4.1,4.5v8.4h-2.2v-8.4c0-0.9-0.2-1.6-0.6-2
			s-1-0.7-1.9-0.7c-0.7,0-1.3,0.2-1.9,0.6s-0.9,0.9-1.2,1.5v9h-2.2V33.1H143.6z"/>
		<path class="st13" d="M163.3,39.1v6.7H161V28.7h6.3c1.9,0,3.3,0.5,4.4,1.4s1.6,2.2,1.6,3.8c0,1.7-0.5,2.9-1.6,3.8
			s-2.5,1.3-4.4,1.3h-4V39.1z M163.3,37.3h4c1.2,0,2.1-0.3,2.8-0.9c0.6-0.6,1-1.4,1-2.5c0-1-0.3-1.8-1-2.4s-1.5-0.9-2.6-1h-4.2V37.3
			z"/>
		<path class="st13" d="M183.6,45.8c-0.1-0.3-0.2-0.7-0.3-1.3c-1,1-2.2,1.6-3.6,1.6c-1.3,0-2.3-0.4-3.1-1.1s-1.2-1.6-1.2-2.7
			c0-1.3,0.5-2.3,1.5-3.1s2.4-1.1,4.2-1.1h2.1v-1c0-0.8-0.2-1.4-0.7-1.8s-1.1-0.7-2-0.7c-0.8,0-1.4,0.2-1.9,0.6s-0.8,0.9-0.8,1.4
			h-2.2c0-0.6,0.2-1.2,0.7-1.8s1.1-1.1,1.8-1.4s1.6-0.5,2.5-0.5c1.5,0,2.6,0.4,3.4,1.1s1.3,1.7,1.3,3v5.8c0,1.2,0.1,2.1,0.4,2.8v0.2
			H183.6z M180,44.1c0.7,0,1.3-0.2,1.9-0.5s1.1-0.8,1.3-1.4v-2.6h-1.7c-2.7,0-4,0.8-4,2.3c0,0.7,0.2,1.2,0.7,1.6
			S179.3,44.1,180,44.1z"/>
		<path class="st13" d="M192.8,42.6l3-9.5h2.3L193,47.7c-0.8,2.1-2,3.2-3.8,3.2h-0.4l-0.8-0.2v-1.8h0.6c0.7,0,1.3-0.1,1.7-0.4
			s0.7-0.8,1-1.6l0.5-1.3l-4.5-12.5h2.4L192.8,42.6z"/>
	</g>
</g>
</svg>
